PathFileType	4	(X/Y/Z)	/Users/itak/Documents/Research/Walk-IL/dataset/trc/00177_00008.trc
DataRate	CameraRate	NumFrames	NumMarkers	Units	OrigDataRate	OrigDataStartFrame	OrigNumFrames
100.000000	100.000000	4	53	mm	100.000000	294	588
Frame#	Time	RPSI			LPSI			L3			STRN			T10			C7			CLAV			RBAK			LBAK			LSHO			LUPA			LAEL			LAOL			LWTS			LWPS			LFRA			LIFD			LHPS			LHTS			RSHO			RUPA			RAEL			RAOL			RWTS			RWPS			RFRA			RIFD			RHTS			RHPS			RBHD			LFHD			RFHD			LBHD			LHIP			RHIP			RASI			LASI			LKNE			LTHI			LANK			LTIP			LTOE			LMT1			LMT5			LHEE			RKNE			RTHI			RANK			RTIP			RTOE			RMT1			RMT5			RHEE			
		X1	Y1	Z1	X2	Y2	Z2	X3	Y3	Z3	X4	Y4	Z4	X5	Y5	Z5	X6	Y6	Z6	X7	Y7	Z7	X8	Y8	Z8	X9	Y9	Z9	X10	Y10	Z10	X11	Y11	Z11	X12	Y12	Z12	X13	Y13	Z13	X14	Y14	Z14	X15	Y15	Z15	X16	Y16	Z16	X17	Y17	Z17	X18	Y18	Z18	X19	Y19	Z19	X20	Y20	Z20	X21	Y21	Z21	X22	Y22	Z22	X23	Y23	Z23	X24	Y24	Z24	X25	Y25	Z25	X26	Y26	Z26	X27	Y27	Z27	X28	Y28	Z28	X29	Y29	Z29	X30	Y30	Z30	X31	Y31	Z31	X32	Y32	Z32	X33	Y33	Z33	X34	Y34	Z34	X35	Y35	Z35	X36	Y36	Z36	X37	Y37	Z37	X38	Y38	Z38	X39	Y39	Z39	X40	Y40	Z40	X41	Y41	Z41	X42	Y42	Z42	X43	Y43	Z43	X44	Y44	Z44	X45	Y45	Z45	X46	Y46	Z46	X47	Y47	Z47	X48	Y48	Z48	X49	Y49	Z49	X50	Y50	Z50	X51	Y51	Z51	X52	Y52	Z52	X53	Y53	Z53	

295	2.94	-124.8866500854492	1065.25927734375	406.1365966796875	-127.5037078857422	1069.13818359375	283.9767150878906	-122.7371368408203	1107.759643554688	349.14453125	149.7415313720703	1305.93896484375	339.3588256835938	-144.7431182861328	1267.366088867188	347.3758544921875	-69.81610107421875	1533.678833007812	328.365966796875	125.5717163085938	1420.37548828125	326.8907165527344	-136.9212493896484	1363.590698242188	443.7744445800781	-81.85862731933594	1506.050537109375	228.6402893066406	-10.27411079406738	1486.446655273438	147.1940002441406	-53.99294662475586	1352.716674804688	84.39683532714844	-54.76857376098633	1135.711303710938	78.06320953369141	-83.50308227539062	1122.6181640625	160.8039703369141	74.28097534179688	912.4032592773438	88.603271484375	-13.29155731201172	882.7496337890625	72.94350433349609	-39.84119415283203	1024.182006835938	66.32113647460938	111.7059783935547	730.2440795898438	114.5088729858398	14.73051071166992	814.77490234375	75.19028472900391	86.17840576171875	833.0601196289062	70.76020812988281	0.2386716157197952	1514.007080078125	507.1635131835938	-18.41373443603516	1449.776611328125	579.335693359375	-35.85117340087891	1163.796997070312	646.3287963867188	-42.98543167114258	1151.409301757812	549.3167724609375	113.289680480957	943.7265014648438	630.5061645507812	42.18068313598633	923.914794921875	679.0609130859375	-7.83289098739624	1092.541748046875	665.996337890625	139.0730133056641	758.2027587890625	610.277587890625	146.5014495849609	852.7296752929688	641.5953369140625	74.447509765625	842.4189453125	677.5806884765625	4.833224773406982	1701.765625	393.1184997558594	118.7722473144531	1725.971557617188	208.622802734375	159.4831085205078	1748.797973632812	329.6185913085938	-46.47783660888672	1685.917724609375	264.8524475097656	-29.31069755554199	1013.265502929688	159.1713562011719	22.56417846679688	1013.035400390625	531.563720703125	104.2057037353516	1042.971557617188	478.8793640136719	97.05400085449219	1048.718017578125	220.5307922363281	180.9824676513672	540.3565673828125	143.5497894287109	122.9050064086914	678.9166870117188	135.0317077636719	15.87491226196289	83.53273773193359	152.5708160400391	101.8441390991211	315.9580078125	132.5989227294922	227.8002777099609	65.54904937744141	126.329475402832	194.1380310058594	70.42975616455078	183.1475677490234	108.9872970581055	57.35614776611328	92.97255706787109	-16.33907699584961	97.22831726074219	230.8734588623047	68.94727325439453	512.3085327148438	487.9372253417969	86.12848663330078	784.2642211914062	529.0405883789062	-67.88219451904297	35.31689453125	456.939697265625	71.49885559082031	387.0820617675781	467.2072448730469	156.5316467285156	44.75852966308594	434.1192016601562	104.5555953979492	45.13667297363281	387.5845031738281	43.68288803100586	30.58256149291992	500.8288269042969	-114.9496002197266	40.75300979614258	384.8432006835938	
296	2.95	-131.4982452392578	1065.70458984375	405.4611206054688	-133.3460845947266	1069.676513671875	283.310791015625	-129.0017242431641	1108.252075195312	348.5347595214844	143.1804046630859	1306.69677734375	340.4620056152344	-151.2540130615234	1267.690795898438	346.8612976074219	-76.66043090820312	1534.174194335938	328.6793518066406	118.8934707641602	1421.09423828125	328.0014038085938	-144.1209411621094	1363.78271484375	443.4265441894531	-88.15760040283203	1506.659423828125	228.8713531494141	-16.18395614624023	1487.37548828125	147.701171875	-59.59926223754883	1353.69921875	84.51075744628906	-60.29643630981445	1136.70263671875	77.84262084960938	-89.28372192382812	1123.45263671875	160.4702301025391	69.15853881835938	913.618896484375	88.53440093994141	-18.32310104370117	883.8046264648438	72.66572570800781	-45.13882446289062	1025.177368164062	66.03488922119141	106.9595565795898	731.5208740234375	114.1431732177734	9.837898254394531	815.904052734375	74.87020111083984	81.25199127197266	834.3634033203125	70.55039215087891	-7.425661563873291	1514.2841796875	507.7660217285156	-26.44100952148438	1450.042724609375	579.7840576171875	-44.66558456420898	1164.394897460938	646.9407348632812	-51.35979843139648	1151.768798828125	549.867919921875	102.3772354125977	942.8695678710938	632.865966796875	30.8692569732666	924.108642578125	681.2431030273438	-17.34714317321777	1093.114868164062	666.983642578125	125.9035110473633	756.810791015625	613.5350341796875	134.4377593994141	851.4507446289062	644.4632568359375	62.19213104248047	842.2002563476562	680.2798461914062	-2.59822416305542	1701.983032226562	394.5845336914062	111.8077011108398	1727.407592773438	210.4947967529297	152.1118316650391	1749.718627929688	331.7154235839844	-53.64352416992188	1686.71142578125	266.0021667480469	-34.89225006103516	1013.859619140625	158.9479064941406	15.15637588500977	1013.589538574219	531.7362670898438	97.26235961914062	1043.52001953125	479.5719604492188	91.58223724365234	1049.251708984375	221.1971740722656	174.5457305908203	540.1295776367188	143.4862060546875	117.2845687866211	679.261962890625	135.1678314208984	-7.81071949005127	89.84488677978516	153.8296966552734	87.62624359130859	318.428466796875	133.2644195556641	203.3807525634766	63.82198333740234	129.3599700927734	169.49658203125	70.15802764892578	185.8547973632812	84.61527252197266	59.82384872436523	95.09125518798828	-40.03020095825195	105.2015151977539	231.8471221923828	63.66997909545898	513.2363891601562	488.2319641113281	79.46671295166016	785.0366821289062	529.555419921875	-68.07452392578125	34.89826583862305	457.2060852050781	67.3660888671875	388.1069641113281	467.4562683105469	156.01416015625	45.39186096191406	434.4751281738281	104.1845474243164	45.45653915405273	387.779541015625	43.5361442565918	30.49117088317871	500.9236145019531	-115.3365707397461	40.35882949829102	384.9848327636719	
297	2.96	-138.1072387695312	1066.0341796875	404.6930236816406	-139.1402130126953	1070.045166015625	282.5630798339844	-135.2218627929688	1108.595825195312	347.820068359375	136.6224975585938	1307.308227539062	341.509521484375	-157.7503051757812	1267.88330078125	346.1927795410156	-83.47230529785156	1534.513427734375	328.8533020019531	112.2246475219727	1421.672607421875	329.0596008300781	-151.3457794189453	1363.84130859375	442.93115234375	-94.39852142333984	1507.124145507812	228.9593048095703	-21.99830627441406	1488.145874023438	148.1015014648438	-65.06514739990234	1354.540771484375	84.48230743408203	-65.72044372558594	1137.56103515625	77.37706756591797	-95.06954193115234	1124.1318359375	159.8423767089844	64.00299072265625	914.64892578125	88.30322265625	-23.36129379272461	884.7247924804688	72.07057952880859	-50.36496353149414	1026.048583984375	65.47853851318359	102.1254348754883	732.6118774414062	113.5158843994141	4.927405834197998	816.89990234375	74.22325134277344	76.30595397949219	835.51416015625	70.12596130371094	-15.14136028289795	1514.42724609375	508.2613220214844	-34.54373168945312	1450.171508789062	580.119873046875	-53.51077651977539	1164.871337890625	647.5093383789062	-59.77460479736328	1151.971923828125	550.366943359375	91.49956512451172	941.9824829101562	635.1157836914062	19.64716911315918	924.2489624023438	683.3562622070312	-26.86142539978027	1093.577392578125	667.9127807617188	112.8604278564453	755.4406127929688	616.6968994140625	122.4451904296875	850.17822265625	647.2103881835938	50.0582160949707	841.9638671875	682.9044799804688	-10.04575061798096	1702.072265625	395.9776306152344	104.8031768798828	1728.738647460938	212.2916107177734	144.6885986328125	1750.552124023438	333.7380065917969	-60.83525848388672	1687.33642578125	267.0655517578125	-40.32872772216797	1014.202270507812	158.7039794921875	7.814547538757324	1014.090576171875	531.8109741210938	90.3653564453125	1043.96044921875	480.1427612304688	86.14296722412109	1049.601684570312	221.7129516601562	167.7833557128906	539.576171875	143.4171905517578	111.4356231689453	679.2713012695312	135.2343444824219	-31.66586685180664	96.56884002685547	154.7929229736328	73.17738342285156	320.9010620117188	133.8148040771484	178.5689086914062	62.52468872070312	132.3642883300781	144.4390411376953	70.31272888183594	188.48193359375	60.00663757324219	62.72665023803711	97.03316497802734	-63.87200927734375	113.5334854125977	232.535888671875	58.59338760375977	514.0989379882812	488.5438537597656	72.90822601318359	785.7788696289062	530.022216796875	-68.28000640869141	34.47137451171875	457.5088500976562	63.39685440063477	389.0661315917969	467.7399291992188	155.4400024414062	46.14386367797852	434.8791809082031	103.7818603515625	45.82936096191406	388.0190734863281	43.38176727294922	30.3991641998291	501.0289306640625	-115.6743774414062	39.97094345092773	385.1733703613281	
298	2.97	-144.7091217041016	1066.261352539062	403.8484802246094	-144.9001159667969	1070.26953125	281.7377319335938	-141.4037475585938	1108.812133789062	347.0074157714844	130.0591125488281	1307.7939453125	342.4967346191406	-164.2356414794922	1267.9609375	345.3768005371094	-90.26581573486328	1534.71630859375	328.8834228515625	105.554801940918	1422.12939453125	330.0606079101562	-158.5929718017578	1363.783813476562	442.2887268066406	-100.5913467407227	1507.45947265625	228.9068908691406	-27.72439002990723	1488.7783203125	148.3979949951172	-70.39366149902344	1355.259887695312	84.31143188476562	-71.02857971191406	1138.30322265625	76.68123626708984	-100.8590393066406	1124.678100585938	158.9272155761719	58.81309127807617	915.5030517578125	87.92996978759766	-28.40244674682617	885.5256958007812	71.17633819580078	-55.51006317138672	1026.813232421875	64.66786193847656	97.17789459228516	733.5198364257812	112.6747665405273	-0.01082877349108458	817.7720947265625	73.27483367919922	71.33149719238281	836.5116577148438	69.52053833007812	-22.91704940795898	1514.454345703125	508.6438598632812	-42.72600173950195	1450.179931640625	580.3367919921875	-62.39873886108398	1165.237426757812	648.0087890625	-68.21417999267578	1152.038208007812	550.7774658203125	80.66151428222656	941.0780639648438	637.2720947265625	8.493014335632324	924.3394165039062	685.3773803710938	-36.39186096191406	1093.939819335938	668.7601318359375	99.98448944091797	754.1119995117188	619.7858276367188	110.5380859375	848.9326782226562	649.8674926757812	38.03173828125	841.7161254882812	685.4443359375	-17.50130081176758	1702.049438476562	397.2952880859375	97.77052307128906	1729.973876953125	214.0139617919922	137.2272796630859	1751.29638671875	335.6898193359375	-68.02909851074219	1687.814208984375	268.041259765625	-45.65058517456055	1014.326293945312	158.4275970458984	0.5480336546897888	1014.543762207031	531.7881469726562	83.51154327392578	1044.309204101562	480.5876159667969	80.72940826416016	1049.7890625	222.0749664306641	160.6317138671875	538.7069702148438	143.3442230224609	105.3178329467773	678.96044921875	135.2598876953125	-55.61312484741211	103.6534576416016	155.472900390625	58.46665573120117	323.3686828613281	134.2576446533203	153.4505767822266	61.68324279785156	135.2248840332031	119.0780258178711	70.90478515625	190.9464111328125	35.22344970703125	66.06355285644531	98.76006317138672	-87.75651550292969	122.1480178833008	232.9808654785156	53.75126266479492	514.9010009765625	488.8789672851562	66.46159362792969	786.4953002929688	530.4467163085938	-68.50008392333984	34.04754638671875	457.8312072753906	59.62285995483398	389.9615783691406	468.0711059570312	154.8218231201172	46.99562072753906	435.32421875	103.3571472167969	46.26758193969727	388.2996215820312	43.22137832641602	30.30639266967773	501.1442565917969	-115.942756652832	39.58990097045898	385.400634765625	
